<svg width="200" height="200" viewBox="0 0 200 200" xmlns="http://www.w3.org/2000/svg">
  <defs>
    <linearGradient id="gradientBg" x1="0%" y1="0%" x2="100%" y2="100%">
      <stop offset="0%" style="stop-color:#2563eb;stop-opacity:1" />
      <stop offset="100%" style="stop-color:#7c3aed;stop-opacity:1" />
    </linearGradient>
  </defs>
  
  <!-- Background Circle -->
  <circle cx="100" cy="100" r="95" fill="url(#gradientBg)" />
  
  <!-- Shield Shape -->
  <path d="M 100 30 L 150 50 L 150 100 Q 150 140 100 165 Q 50 140 50 100 L 50 50 Z" 
        fill="white" opacity="0.95"/>
  
  <!-- User Icon -->
  <circle cx="100" cy="85" r="18" fill="#2563eb"/>
  <path d="M 75 125 Q 75 110 100 110 Q 125 110 125 125 L 125 135 Q 125 140 120 140 L 80 140 Q 75 140 75 135 Z" 
        fill="#2563eb"/>
  
  <!-- QR Code Pattern -->
  <g transform="translate(130, 130)">
    <rect x="0" y="0" width="8" height="8" fill="#7c3aed" rx="1"/>
    <rect x="10" y="0" width="8" height="8" fill="#7c3aed" rx="1"/>
    <rect x="0" y="10" width="8" height="8" fill="#7c3aed" rx="1"/>
    <rect x="10" y="10" width="8" height="8" fill="#7c3aed" rx="1"/>
  </g>
  
  <!-- Checkmark -->
  <path d="M 60 85 L 70 95 L 85 75" 
        stroke="white" stroke-width="4" fill="none" 
        stroke-linecap="round" stroke-linejoin="round"/>
</svg>
