<svg width="640" height="420" viewBox="0 0 640 420" fill="none" xmlns="http://www.w3.org/2000/svg">
  <rect width="640" height="420" rx="32" fill="#F0EFE9"/>
  <path d="M80 280C160 220 260 180 360 190C450 200 520 240 560 300" stroke="#1C7C6E" stroke-width="6" stroke-linecap="round"/>
  <circle cx="170" cy="180" r="40" fill="#F2B705"/>
  <circle cx="300" cy="140" r="24" fill="#1C7C6E"/>
  <circle cx="440" cy="200" r="28" fill="#B44F3F"/>
  <rect x="120" y="230" width="220" height="110" rx="20" fill="#FFFFFF" stroke="#DAD7CF" stroke-width="4"/>
  <rect x="150" y="260" width="160" height="12" rx="6" fill="#1C7C6E"/>
  <rect x="150" y="285" width="120" height="12" rx="6" fill="#5B5B52"/>
  <rect x="150" y="310" width="90" height="12" rx="6" fill="#5B5B52"/>
  <rect x="370" y="230" width="160" height="110" rx="20" fill="#FFFFFF" stroke="#DAD7CF" stroke-width="4"/>
  <rect x="400" y="260" width="100" height="12" rx="6" fill="#1C7C6E"/>
  <rect x="400" y="285" width="120" height="12" rx="6" fill="#5B5B52"/>
</svg>
